<?xml version="1.0" encoding="utf-8"?>
<!-- Generator: Adobe Illustrator 26.0.1, SVG Export Plug-In . SVG Version: 6.00 Build 0)  -->
<svg version="1.1" id="Warstwa_2_00000148645618649428583490000011155723438004043429_"
	 xmlns="http://www.w3.org/2000/svg" xmlns:xlink="http://www.w3.org/1999/xlink" x="0px" y="0px" viewBox="0 0 1000 1000"
	 style="enable-background:new 0 0 1000 1000;" xml:space="preserve">
<style type="text/css">
	.st0{fill:#FFFFFF;}
	.st1{fill:#D3D3D3;}
</style>
<path class="st0" d="M240.3,748.7l58.7-117.9l0.9-1.5c3.5-5.8,7.9-11.1,13-15.6l0,0l61.9-63.4l-55.4,36.2l97.5-199.1h236.4l0,0
	c27-4.3,47.3-27.1,48.3-54.5v0H435.5l0,0c-14.5-4.9-26.3-15.7-32.4-29.8l-9.1-21.1l51.6-26.4h-64.9L349.6,197h275h2.7
	c12.8,0,25.5,2.9,37,8.6l0,0l82.4,33.8L699.8,197h136.6v92.6c0,0.1,0,0.2,0,0.3l0,0c-5.6,22.3-16.8,42.7-32.6,59.4l0,0l32.6-13.6
	v33.5l0,0c-8.3,82.5-76.8,145.8-159.7,147.6l-176.6,3.8l-66.5,143.7l0,0c-10.4,18-26.8,31.8-46.3,39.1l-3.3,1.2L240.3,748.7z"/>
<path class="st1" d="M836.4,369.1v-33.5l-32.6,13.6c15.7-16.7,27-37.2,32.6-59.4l0,0c0-0.1,0-0.2,0-0.3V197H699.8l46.8,42.4
	l-82.4-33.8l0,0c-11.5-5.6-24.2-8.6-37-8.6h-2.7h-275l31.1,58.4h64.9l166.5,4.3L577,230.8l25.8,8.2c50.2,16,103,22.4,155.5,18.9l0,0
	v45.3l28-16.4l-25.8,64.9l-5.8,28l0,0c-13.2,36.1-44.4,62.8-82.2,70.2l0,0c-11.9,2.4-23.9,3.5-36,3.5H577l7.6,29.8l-4.7-2.9
	c-21.8-13.4-46-22.3-71.3-26.4l0,0L473,453l-32.4,56.9l28.9-7.1c-20.8,19.5-40.4,40.4-58.6,62.3l0,0c-0.9,1.1-1.7,2.3-2.5,3.5
	l-89.8,156l65.4-20.1l3.3-1.2c19.5-7.2,35.9-21.1,46.3-39.1l0,0l66.5-143.7l176.6-3.8C759.6,515,828.1,451.6,836.4,369.1
	L836.4,369.1z"/>
</svg>
