<?xml version="1.0" encoding="utf-8"?>
<!-- Generator: Adobe Illustrator 26.0.1, SVG Export Plug-In . SVG Version: 6.00 Build 0)  -->
<svg version="1.1" id="Warstwa_2" xmlns="http://www.w3.org/2000/svg" xmlns:xlink="http://www.w3.org/1999/xlink" x="0px" y="0px"
	 viewBox="0 0 1000 1000" style="enable-background:new 0 0 1000 1000;" xml:space="preserve">
<style type="text/css">
	.st0{fill:#242424;}
	.st1{fill:#FFFFFF;}
	.st2{fill:#D3D3D3;}
</style>
<path class="st0" d="M457.74,742.19l72.89-152.3l140.6-4.01c115.3-3.29,209.89-92.37,220.07-207.27l5.7-64.27V137H241.89
	l109.78,229.78L103.22,863.22L457.74,742.19z"/>
<path class="st1" d="M240.26,748.7l58.67-117.93l0.93-1.55c3.51-5.85,7.89-11.12,13-15.63l0,0l61.93-63.41l-55.41,36.15
	l97.48-199.11H653.3l0,0c27.04-4.31,47.26-27.12,48.29-54.48l0-0.04H435.52h0c-14.52-4.9-26.28-15.74-32.36-29.81l-9.13-21.15
	l51.56-26.37H380.7L349.59,197h274.96h2.74c12.82,0,25.46,2.94,36.96,8.59h0l82.37,33.78L699.81,197h136.59v92.6
	c0,0.09-0.01,0.18-0.03,0.27v0c-5.61,22.26-16.82,42.71-32.56,59.42v0l32.59-13.63v33.48v0c-8.28,82.48-76.8,145.82-159.68,147.6
	l-176.62,3.8l-66.52,143.7l0,0c-10.44,18.01-26.82,31.82-46.33,39.07l-3.3,1.23L240.26,748.7z"/>
<path class="st2" d="M836.41,369.15v-33.48l-32.59,13.63c15.74-16.71,26.95-37.16,32.56-59.42v0c0.02-0.09,0.03-0.18,0.03-0.27V197
	H699.81l46.81,42.37l-82.37-33.78h0c-11.5-5.65-24.15-8.59-36.96-8.59h-2.74H349.59l31.11,58.37h64.89l166.52,4.3L577,230.78
	l25.81,8.23c50.2,16,102.96,22.41,155.52,18.88h0v45.33l28-16.44l-25.78,64.89l-5.78,28v0c-13.25,36.15-44.39,62.78-82.16,70.25h0
	c-11.86,2.35-23.93,3.53-36.02,3.53H577l7.56,29.78l-4.74-2.9C558,466.97,533.8,458,508.56,453.89h0L473,453l-32.44,56.89
	l28.89-7.11c-20.82,19.54-40.4,40.36-58.62,62.33v0c-0.92,1.11-1.74,2.29-2.46,3.54l-89.83,156l65.43-20.1l3.3-1.23
	c19.51-7.25,35.89-21.06,46.33-39.07v0l66.52-143.7l176.62-3.8C759.61,514.97,828.12,451.63,836.41,369.15L836.41,369.15z"/>
</svg>
